<?xml version="1.0" standalone="no"?>
<!DOCTYPE svg PUBLIC "-//W3C//DTD SVG 20010904//EN"
 "http://www.w3.org/TR/2001/REC-SVG-20010904/DTD/svg10.dtd">
<svg version="1.0" xmlns="http://www.w3.org/2000/svg"
 width="1536.000000pt" height="2048.000000pt" viewBox="0 0 1536.000000 2048.000000"
 preserveAspectRatio="xMidYMid meet">

<g transform="translate(0.000000,2048.000000) scale(0.100000,-0.100000)"
fill="#000000" stroke="none">
<path d="M7535 18481 c-49 -5 -115 -14 -145 -20 -208 -47 -280 -65 -430 -112
-135 -43 -358 -156 -465 -236 -159 -120 -386 -364 -515 -553 -92 -136 -137
-258 -205 -560 -37 -161 -57 -211 -109 -264 -103 -107 -138 -256 -98 -424 12
-48 26 -117 33 -155 l11 -67 -46 -50 c-58 -62 -96 -147 -103 -227 -6 -64 21
-184 69 -313 11 -32 22 -91 25 -140 5 -85 5 -85 -31 -138 -38 -57 -62 -117
-71 -180 -6 -39 8 -95 64 -252 38 -106 38 -145 2 -228 -16 -37 -32 -83 -36
-103 -10 -54 21 -183 63 -259 73 -136 85 -164 90 -225 4 -61 4 -61 -48 -130
-81 -107 -90 -132 -90 -261 0 -91 4 -121 21 -163 22 -51 22 -52 4 -149 -9 -53
-21 -149 -26 -212 -4 -63 -13 -140 -19 -170 -6 -30 -13 -110 -15 -178 -2 -68
-11 -146 -20 -174 -8 -28 -15 -78 -15 -110 0 -32 -6 -84 -14 -116 -8 -31 -19
-79 -26 -107 -16 -73 -131 -302 -183 -366 -32 -40 -66 -66 -123 -97 -77 -42
-183 -118 -324 -235 -102 -84 -245 -257 -454 -548 -158 -220 -238 -321 -332
-419 -152 -159 -215 -254 -266 -400 -36 -104 -73 -320 -87 -510 -5 -58 -13
-127 -19 -155 -6 -27 -18 -93 -27 -145 -32 -177 -106 -320 -230 -446 -34 -34
-82 -97 -108 -140 -26 -44 -66 -106 -89 -138 -49 -69 -265 -289 -388 -395
-373 -321 -450 -391 -525 -481 -137 -165 -207 -275 -273 -430 -34 -79 -36 -93
-38 -195 -1 -60 -10 -162 -19 -225 -25 -159 -31 -443 -11 -496 150 -398 305
-626 616 -901 226 -200 559 -374 810 -423 137 -27 532 -29 653 -4 38 8 97 14
132 14 66 0 177 19 273 46 30 9 56 13 59 10 3 -3 -20 -30 -50 -61 -99 -97
-119 -155 -167 -495 -5 -36 -14 -81 -20 -100 -26 -88 -5 -293 39 -379 52 -100
192 -285 246 -324 107 -76 145 -100 200 -126 73 -34 103 -74 140 -186 35 -106
85 -199 141 -263 55 -62 95 -86 133 -77 32 7 81 55 106 103 17 36 35 166 35
269 0 71 14 88 42 52 69 -88 245 -275 308 -326 128 -104 55 -97 1040 -101 593
-2 901 1 1005 9 83 6 314 15 515 19 208 5 388 13 418 20 33 7 123 10 235 8
l182 -3 40 -31 c195 -150 364 -253 630 -384 343 -170 573 -250 990 -344 39 -9
84 -16 100 -16 17 0 46 -5 65 -10 44 -13 316 -34 435 -34 313 0 582 47 840
145 280 107 535 290 714 514 150 186 238 343 324 575 53 141 144 480 172 635
9 50 22 122 30 160 13 64 21 116 56 345 31 202 35 449 25 1435 -5 524 -9 675
-21 732 -8 40 -15 89 -15 110 0 43 -24 200 -45 293 -9 36 -15 77 -15 92 0 15
-7 62 -16 105 -8 43 -22 114 -30 158 -17 89 -38 189 -59 280 -7 33 -21 96 -30
140 -10 44 -30 123 -45 175 -15 52 -35 127 -45 165 -60 245 -295 922 -402
1160 -270 596 -514 1031 -743 1325 -223 287 -315 395 -438 519 -193 194 -371
324 -579 424 -67 31 -126 68 -155 95 -85 79 -219 309 -363 622 -68 147 -182
362 -224 424 -17 24 -53 68 -81 99 -27 30 -50 62 -50 72 0 9 18 38 40 64 48
57 80 134 80 194 0 46 -15 123 -53 267 -40 154 -47 220 -51 510 -3 171 -9 288
-16 310 -7 19 -16 71 -20 115 -4 44 -12 105 -18 135 -6 30 -19 100 -27 155 -9
55 -21 122 -26 148 -5 27 -9 64 -9 82 0 18 -9 62 -21 97 -23 70 -33 180 -48
538 -6 129 -15 271 -21 314 -5 44 -10 126 -10 184 0 66 -7 137 -19 191 -10 47
-33 154 -51 236 -58 269 -191 580 -355 835 -113 175 -259 326 -488 508 -303
240 -563 367 -882 431 -114 23 -376 34 -520 22z m405 -116 c30 -8 69 -15 86
-15 17 0 50 -6 75 -14 24 -8 80 -24 124 -36 246 -69 555 -259 819 -505 202
-188 314 -343 446 -618 89 -186 200 -510 200 -584 0 -14 6 -51 14 -82 8 -31
17 -92 21 -136 3 -44 11 -96 16 -116 5 -20 14 -146 19 -280 18 -428 28 -593
39 -634 6 -22 11 -60 11 -85 0 -44 12 -113 51 -278 10 -45 19 -97 19 -115 0
-18 5 -48 11 -67 6 -19 15 -78 20 -130 15 -171 37 -344 48 -373 7 -17 11 -117
11 -258 0 -239 7 -289 65 -495 8 -28 15 -87 15 -131 0 -66 -4 -86 -23 -114
-26 -40 -95 -76 -175 -90 -174 -32 -283 -143 -386 -390 -19 -45 -56 -110 -85
-146 -28 -35 -55 -81 -60 -101 -22 -86 -41 -196 -41 -242 0 -31 -11 -78 -32
-130 l-31 -81 16 -53 c33 -102 20 -177 -67 -408 -22 -59 -36 -115 -36 -142 0
-56 -12 -65 -39 -28 -34 49 -61 166 -61 270 0 102 -16 175 -57 256 -34 67 -27
105 40 236 114 220 114 307 -2 432 -54 58 -56 63 -55 114 0 44 10 73 62 176
102 203 112 259 68 353 -23 50 -40 70 -109 133 -69 63 -64 126 19 273 57 100
59 107 59 176 0 70 -1 73 -39 112 -21 22 -65 54 -98 71 -71 38 -145 131 -207
259 -57 119 -57 162 5 279 46 87 46 87 41 167 -3 64 -13 101 -46 181 -65 161
-59 217 54 479 51 118 72 224 60 302 -3 23 -32 93 -63 155 l-57 113 -5 370
c-3 204 -8 375 -13 382 -4 6 -12 33 -17 60 -5 26 -19 80 -30 118 -11 39 -25
90 -31 115 -22 97 -44 118 -236 235 -541 329 -714 405 -922 405 -44 0 -127 5
-183 11 -130 15 -412 -2 -543 -32 -243 -56 -443 -146 -617 -277 -61 -46 -113
-81 -116 -77 -11 11 61 141 136 245 110 152 341 384 461 464 178 118 392 209
604 256 51 12 117 27 148 35 30 8 73 15 95 16 21 0 55 7 74 14 51 20 357 20
430 0z m-473 -780 c43 -8 92 -15 108 -15 53 0 212 -57 287 -103 40 -24 96 -56
123 -70 44 -22 170 -99 408 -247 37 -23 74 -54 81 -68 15 -29 74 -250 101
-377 19 -89 18 -183 -6 -394 -13 -118 -12 -128 9 -229 17 -80 35 -132 78 -218
54 -108 56 -115 52 -176 -3 -45 -18 -96 -52 -178 -122 -295 -136 -367 -93
-485 14 -38 40 -111 58 -161 l33 -92 -46 -93 c-32 -66 -48 -111 -51 -150 -9
-103 -27 -121 -339 -345 -105 -76 -234 -164 -468 -321 -118 -80 -394 -218
-520 -261 -76 -26 -111 -32 -175 -32 -108 0 -92 -9 -378 209 -227 174 -335
289 -451 482 -98 166 -158 329 -201 549 -8 47 -22 117 -30 155 -8 39 -17 97
-20 130 -3 33 -9 83 -14 110 -16 83 -13 490 4 560 17 71 20 236 4 285 -15 47
-27 179 -41 467 -10 219 -10 251 6 325 65 318 103 383 290 510 50 33 125 77
167 99 80 40 324 119 369 119 14 0 48 7 75 14 74 21 526 21 632 1z m-1665
-1031 c11 -232 26 -398 37 -434 16 -50 17 -299 2 -405 -19 -130 1 -621 28
-705 6 -19 11 -53 11 -76 0 -23 7 -61 15 -84 8 -23 15 -54 15 -68 0 -26 3 -36
66 -252 76 -261 271 -556 473 -719 210 -169 250 -200 339 -263 51 -37 101 -70
112 -73 36 -11 50 -56 50 -162 0 -55 7 -122 15 -153 8 -30 15 -70 15 -88 0
-18 12 -75 26 -127 22 -78 24 -98 14 -110 -7 -9 -52 -36 -99 -61 -283 -152
-517 -315 -687 -480 -44 -44 -131 -122 -193 -174 -109 -92 -191 -190 -191
-229 0 -9 -5 -33 -11 -54 -8 -32 -13 -36 -25 -26 -19 16 -19 142 0 234 29 138
39 214 33 267 -9 85 -43 162 -100 225 -51 55 -52 58 -52 118 0 55 7 75 65 196
62 128 65 138 68 220 5 110 -11 147 -103 249 -74 83 -95 118 -120 204 -14 48
-15 66 -6 103 16 62 52 127 106 190 86 102 81 154 -38 386 -90 176 -96 220
-45 312 30 55 33 67 32 140 -1 70 -7 94 -48 197 -64 162 -62 211 16 310 79
101 78 173 -7 438 -46 143 -52 195 -30 261 10 29 34 71 55 93 83 91 86 135 34
432 -13 74 -13 88 2 150 13 52 27 78 57 111 22 24 45 42 51 40 7 -2 14 -54 18
-133z m2841 -2331 c49 -84 119 -173 157 -201 13 -9 49 -30 79 -47 30 -16 58
-40 62 -51 6 -16 -10 -56 -63 -162 -110 -217 -106 -264 34 -410 l70 -72 -4
-68 c-4 -59 -13 -84 -72 -202 -50 -102 -69 -149 -73 -192 -9 -92 1 -120 72
-197 98 -107 98 -125 0 -322 -83 -168 -91 -218 -50 -304 15 -32 31 -85 36
-119 5 -34 13 -77 19 -96 5 -19 10 -71 10 -116 0 -95 23 -172 71 -239 24 -33
33 -59 38 -107 8 -70 22 -102 51 -118 36 -19 20 -44 -72 -115 -50 -38 -121
-95 -159 -125 -37 -30 -123 -95 -191 -145 -225 -164 -431 -332 -595 -487 -59
-56 -63 -58 -115 -58 -29 0 -69 5 -88 11 -19 6 -75 15 -125 19 -49 4 -137 13
-195 19 -306 32 -400 42 -455 45 -120 8 -281 26 -315 36 -19 5 -50 10 -68 10
-33 0 -106 16 -222 50 -36 11 -85 24 -110 31 -57 14 -223 80 -303 120 -188 95
-398 280 -507 447 -63 98 -64 85 18 272 116 267 136 310 144 310 4 0 5 -67 1
-148 -3 -81 -3 -165 1 -185 14 -73 107 -148 159 -128 31 12 37 29 37 101 0 40
9 84 29 137 54 149 57 172 27 267 -14 46 -26 97 -26 112 1 49 38 114 97 170
96 89 303 276 383 345 141 122 373 270 607 387 142 72 155 96 109 208 -47 115
-66 224 -66 375 0 160 -1 158 105 179 163 33 500 200 715 355 47 34 147 104
223 156 133 90 361 256 420 305 16 13 35 24 42 24 7 0 34 -35 58 -77z m-2959
-1033 c29 -35 41 -85 33 -138 -7 -42 -98 -224 -116 -230 -16 -5 -14 128 4 213
8 38 15 90 15 115 0 42 13 70 31 70 4 0 19 -14 33 -30z m4317 -178 c95 -100
158 -205 284 -477 105 -227 176 -365 219 -427 58 -85 86 -142 78 -155 -4 -5
-57 -13 -119 -16 -302 -17 -567 -141 -978 -458 -71 -55 -146 -116 -165 -135
-57 -55 -60 -50 -60 94 0 135 4 149 90 377 30 82 37 167 16 237 -15 51 -14 59
3 119 10 35 24 105 30 154 30 218 31 221 103 307 20 23 45 66 56 93 77 191
120 268 174 306 43 31 117 58 159 59 33 0 44 -8 110 -78z m-4401 -483 c0 -5
22 -34 49 -62 28 -29 55 -65 60 -81 14 -34 14 -182 1 -255 -5 -31 -16 -94 -25
-141 -8 -47 -15 -102 -15 -123 0 -23 -13 -64 -33 -105 -19 -37 -55 -114 -80
-172 -25 -58 -65 -148 -87 -200 -23 -52 -59 -140 -79 -195 -21 -55 -45 -115
-55 -133 -9 -17 -37 -86 -62 -152 -24 -66 -56 -146 -70 -178 -14 -31 -34 -81
-45 -110 -20 -59 -63 -162 -146 -352 -30 -69 -66 -161 -80 -205 -14 -44 -45
-141 -68 -215 -46 -145 -56 -186 -80 -325 -9 -49 -22 -121 -30 -160 -36 -183
-45 -284 -45 -490 0 -116 5 -226 10 -245 6 -19 15 -68 20 -108 18 -134 77
-329 141 -460 80 -167 154 -275 279 -412 133 -146 201 -249 235 -360 15 -47
35 -109 46 -138 15 -42 19 -81 19 -176 0 -72 -4 -126 -10 -132 -13 -13 -82 -9
-200 11 -47 8 -119 19 -160 25 -41 6 -104 18 -140 27 -36 9 -83 18 -105 20
-50 6 -59 15 -61 58 0 24 -10 45 -29 65 -26 27 -120 69 -190 85 -39 9 -45 21
-28 56 47 93 -85 168 -332 190 -60 5 -135 13 -165 18 -30 5 -173 10 -317 10
-164 1 -263 5 -263 11 0 5 9 24 20 42 24 40 25 76 4 106 -23 33 -63 28 -157
-19 -163 -83 -284 -178 -391 -312 -118 -147 -165 -258 -201 -482 -9 -55 -23
-129 -31 -165 -43 -197 -54 -372 -29 -483 17 -77 45 -134 70 -143 26 -10 65 6
77 31 24 53 43 31 88 -97 52 -150 85 -217 141 -289 55 -71 78 -89 115 -89 45
0 66 29 78 111 6 38 15 71 20 72 4 1 21 -33 36 -75 45 -123 118 -270 152 -305
34 -35 72 -42 124 -23 23 9 37 5 98 -26 88 -46 142 -50 180 -15 34 32 40 70
25 147 -22 109 13 112 130 10 105 -91 151 -94 191 -11 26 53 44 68 98 84 31 9
49 21 60 42 10 16 24 28 32 27 8 -2 43 -41 78 -88 35 -47 76 -99 93 -115 48
-51 43 -57 -91 -96 -89 -26 -247 -59 -284 -59 -17 0 -63 -7 -101 -15 -39 -8
-97 -15 -130 -15 -33 0 -85 -7 -115 -15 -74 -20 -320 -20 -403 0 -205 48 -249
60 -317 86 -289 110 -610 354 -826 629 -197 250 -311 561 -285 779 5 47 15
167 21 266 6 99 12 205 14 236 10 156 203 457 412 646 137 123 260 229 299
258 76 56 292 263 392 377 55 62 131 160 168 218 38 58 94 134 124 170 95 109
117 142 163 235 64 133 118 336 118 445 0 30 7 87 15 125 8 39 15 93 15 120 0
46 14 127 42 245 6 25 14 65 19 89 18 90 83 203 174 302 110 120 298 353 400
494 319 446 491 619 755 763 36 20 75 43 87 53 48 36 156 187 211 296 36 69
132 458 132 530 0 14 6 23 15 23 8 0 15 -5 15 -11z m4994 -720 c191 -34 287
-70 431 -159 157 -98 235 -163 415 -347 282 -286 453 -512 701 -923 142 -235
210 -363 299 -560 27 -58 76 -166 110 -240 75 -164 160 -380 250 -640 86 -246
207 -654 229 -770 5 -25 20 -90 34 -145 25 -99 40 -167 72 -320 9 -44 23 -109
31 -145 8 -36 14 -78 14 -95 0 -16 7 -52 15 -79 8 -27 15 -68 15 -91 0 -23 7
-64 15 -91 8 -27 15 -71 15 -99 0 -27 7 -79 15 -115 8 -36 15 -92 15 -125 0
-33 7 -91 15 -130 17 -79 20 -351 5 -475 -5 -44 -4 -112 1 -164 5 -48 10 -323
10 -610 1 -445 -1 -531 -15 -586 -9 -36 -16 -87 -16 -115 0 -27 -5 -68 -11
-90 -5 -22 -14 -76 -18 -120 -15 -132 -50 -306 -127 -620 -130 -537 -313 -853
-654 -1127 -202 -162 -535 -294 -885 -350 -106 -17 -551 -17 -665 0 -609 91
-1149 295 -1640 621 -190 126 -393 287 -526 419 -113 111 -236 252 -231 265 9
28 309 41 462 19 50 -7 160 -16 247 -21 86 -5 161 -12 168 -16 20 -12 601 -16
692 -5 45 6 115 15 153 19 39 5 90 16 114 25 24 9 53 16 65 16 32 0 238 72
331 115 44 21 132 61 195 91 63 29 181 76 261 103 194 66 296 115 423 201 130
88 268 231 320 329 52 99 96 226 96 277 0 24 6 70 14 102 30 122 46 225 65
432 6 58 15 121 21 140 6 19 15 105 21 190 5 85 14 193 19 240 15 144 12 600
-4 683 -8 40 -17 170 -20 292 -3 121 -11 254 -17 295 -5 41 -14 233 -19 425
-9 367 -23 582 -40 643 -5 20 -10 58 -10 83 0 25 -7 68 -15 95 -8 27 -15 60
-15 73 0 26 -7 51 -71 260 -22 73 -44 154 -48 180 -16 91 -74 268 -113 342
-47 92 -138 188 -212 224 -28 14 -78 28 -111 31 -83 8 -151 -19 -263 -106 -82
-63 -252 -232 -252 -250 0 -11 -131 -116 -177 -142 -179 -102 -436 -292 -562
-416 -130 -128 -197 -222 -266 -369 -46 -100 -58 -137 -66 -205 -10 -86 -28
-199 -49 -303 -6 -33 -18 -96 -27 -140 -77 -410 -175 -654 -348 -870 -57 -71
-133 -217 -170 -330 -20 -60 -45 -125 -55 -145 -10 -19 -28 -68 -40 -109 -12
-40 -49 -127 -82 -192 -50 -98 -73 -132 -137 -197 l-77 -78 -164 -57 c-304
-104 -438 -137 -557 -137 -85 0 -175 19 -188 41 -3 4 2 20 11 33 21 33 22 87
2 117 -21 33 -188 105 -312 136 -55 13 -177 50 -269 80 -172 57 -215 79 -419
212 -134 87 -192 118 -343 183 -83 35 -172 66 -220 75 -118 22 -217 55 -348
114 -132 60 -141 71 -113 142 8 23 25 87 36 142 21 101 142 473 188 575 13 30
32 79 43 109 10 29 78 172 150 318 203 406 417 761 673 1117 39 54 85 117 101
140 34 48 206 264 298 376 34 41 125 141 202 223 77 82 156 172 176 200 34 49
357 360 479 461 89 75 386 306 500 389 58 42 168 129 245 192 573 472 707 572
915 683 99 52 306 121 369 123 20 1 47 5 61 9 37 12 96 11 164 -1z m-5091
-881 c38 -56 159 -179 267 -273 144 -125 609 -315 848 -346 35 -5 68 -12 74
-15 13 -8 111 -19 298 -34 63 -5 147 -16 185 -24 39 -8 116 -15 172 -16 56 0
135 -7 175 -16 40 -8 87 -12 105 -9 19 3 65 -3 112 -15 43 -11 91 -20 105 -20
41 0 32 -26 -35 -101 l-61 -69 -102 0 c-60 0 -121 6 -150 15 -28 9 -90 15
-145 15 -53 1 -125 7 -161 15 -36 8 -101 14 -145 15 -44 0 -112 7 -150 15 -39
8 -95 15 -125 15 -30 0 -84 6 -120 15 -36 8 -101 21 -145 28 -368 66 -705 248
-932 504 -87 99 -163 220 -163 261 0 39 25 92 44 92 7 0 29 -24 49 -52z m-105
-275 c117 -156 224 -262 359 -356 128 -89 447 -227 593 -256 44 -8 62 -12 202
-45 36 -9 86 -16 110 -16 23 0 68 -7 98 -15 30 -8 82 -15 115 -15 33 0 92 -7
130 -15 39 -8 111 -15 160 -15 50 0 131 -7 180 -15 50 -8 119 -15 155 -15 77
0 110 -8 110 -25 0 -7 -24 -37 -52 -66 -58 -59 -96 -104 -303 -362 -124 -155
-273 -352 -345 -458 -253 -372 -380 -580 -536 -884 -238 -463 -374 -809 -470
-1195 -20 -80 -42 -151 -49 -158 -9 -11 -21 -11 -51 -3 -22 6 -79 14 -127 17
-48 4 -90 11 -94 16 -3 6 -6 96 -8 201 -2 186 -3 195 -34 287 -65 194 -142
316 -307 491 -144 151 -274 387 -327 589 -64 247 -62 233 -62 555 0 245 3 314
17 375 9 41 24 118 33 170 9 52 21 120 26 150 19 97 125 435 179 565 18 44 47
116 65 160 18 44 45 109 60 145 15 36 43 103 62 150 31 75 50 110 58 110 1 0
25 -30 53 -67z m6137 -1122 c48 -22 137 -116 169 -180 27 -53 71 -195 80 -259
4 -23 22 -88 40 -145 19 -56 44 -142 56 -192 11 -49 27 -113 35 -141 8 -28 15
-64 15 -80 0 -16 5 -45 11 -64 13 -40 24 -161 38 -400 6 -91 15 -212 22 -270
6 -58 14 -280 17 -495 4 -214 10 -395 14 -401 12 -18 31 -292 32 -434 1 -237
-16 -605 -30 -679 -8 -40 -14 -102 -14 -138 0 -36 -7 -92 -15 -124 -9 -33 -20
-99 -25 -147 -17 -158 -28 -237 -39 -265 -6 -16 -11 -46 -11 -68 0 -75 -39
-222 -82 -309 -35 -71 -60 -102 -148 -190 -85 -85 -124 -116 -205 -161 -109
-60 -232 -112 -383 -161 -53 -16 -124 -44 -157 -61 -95 -47 -299 -137 -312
-137 -16 0 -16 2 2 36 27 53 15 165 -35 309 -34 98 -17 107 71 41 61 -46 188
-96 245 -96 89 0 187 66 224 152 28 66 24 158 -12 268 -14 41 -33 102 -43 135
-26 90 -80 190 -150 280 -90 115 -188 202 -440 388 -77 57 -162 123 -190 145
-58 49 -162 105 -223 122 -54 14 -99 1 -136 -40 -14 -17 -30 -30 -35 -30 -5 0
-35 12 -67 27 -50 23 -71 27 -139 26 -44 -1 -132 -1 -195 0 -63 1 -188 2 -277
1 -114 0 -163 3 -163 11 0 6 14 24 31 41 35 33 85 108 125 186 31 61 133 317
159 398 24 77 102 256 132 303 13 21 53 74 87 118 113 143 216 371 267 589 16
69 40 167 54 219 14 51 25 106 25 121 0 16 4 50 9 77 6 26 17 93 26 148 9 55
23 123 31 151 8 28 14 58 14 67 0 9 16 55 35 102 36 90 111 205 191 294 95
106 293 258 514 396 152 95 256 179 304 243 49 67 193 204 250 237 55 32 112
54 141 54 11 0 38 -8 60 -18z m-8274 -2233 l39 -41 242 6 c134 3 315 3 403 -1
153 -7 160 -8 156 -27 -9 -48 -3 -86 15 -106 28 -32 102 -66 169 -78 32 -6 60
-13 63 -15 13 -13 -15 -26 -56 -26 -26 0 -90 -9 -142 -19 -76 -16 -99 -25
-117 -46 -75 -87 60 -156 213 -110 66 20 274 20 340 0 27 -8 68 -15 91 -15 23
0 75 -6 115 -14 195 -39 235 -46 257 -46 36 0 20 -21 -31 -40 -131 -50 -281
-168 -327 -258 -27 -54 -51 -154 -51 -218 0 -27 -9 -90 -20 -140 -30 -134 -42
-302 -29 -399 19 -129 18 -149 -8 -153 -16 -2 -32 11 -64 53 -58 77 -122 125
-166 125 -40 0 -79 -33 -89 -77 -9 -39 -20 -50 -68 -72 -22 -10 -50 -28 -60
-40 -27 -30 -47 -27 -110 18 -101 70 -180 75 -237 15 -20 -22 -24 -38 -28
-105 -2 -50 -8 -82 -15 -85 -7 -3 -42 11 -80 31 -47 25 -81 35 -112 35 -40 0
-45 3 -63 38 -24 47 -93 221 -116 291 -22 67 -75 128 -120 137 -68 12 -125
-49 -125 -134 0 -96 -39 -43 -95 128 -65 198 -119 274 -193 268 -47 -3 -52 6
-52 105 0 87 13 182 46 327 8 36 14 86 14 111 0 50 59 248 95 319 38 73 110
160 193 232 42 37 79 68 81 68 2 0 21 -19 42 -42z m2519 -682 c94 -34 296
-119 357 -149 54 -28 245 -87 281 -87 39 0 244 -80 360 -141 64 -34 167 -95
229 -136 118 -77 185 -112 218 -113 25 0 335 -105 384 -129 20 -10 74 -30 121
-45 143 -43 187 -86 103 -102 -58 -11 -103 1 -227 61 -182 87 -446 165 -446
131 0 -22 29 -41 170 -111 74 -37 164 -89 200 -115 36 -26 85 -58 110 -70 83
-42 140 -88 243 -197 56 -59 149 -151 207 -203 147 -132 290 -277 326 -330 45
-65 49 -85 24 -110 -19 -19 -29 -21 -68 -15 -58 8 -117 33 -196 84 -34 21
-104 59 -156 84 -89 43 -138 77 -455 319 -130 99 -269 168 -338 168 -89 0
-115 -59 -59 -136 43 -58 306 -319 390 -386 199 -159 557 -510 591 -580 29
-61 28 -122 -4 -153 -20 -21 -34 -25 -82 -25 -80 1 -147 30 -300 134 -160 109
-197 139 -413 341 -96 90 -188 173 -205 186 -16 12 -75 66 -130 120 -55 54
-113 101 -128 104 -40 10 -77 -17 -77 -56 0 -43 12 -60 82 -119 35 -29 108
-96 164 -149 112 -107 422 -385 464 -416 97 -71 220 -178 225 -196 11 -33 -3
-68 -29 -75 -15 -3 -90 16 -202 51 -220 70 -377 148 -484 240 -41 35 -138 111
-215 169 -77 58 -163 126 -191 152 -28 27 -66 55 -83 63 -29 14 -35 14 -59 0
-20 -11 -28 -24 -30 -51 -3 -33 2 -40 74 -104 42 -38 104 -94 138 -125 67 -61
211 -182 287 -242 48 -38 61 -57 37 -57 -26 0 -166 34 -258 62 -157 49 -158
50 -380 248 -175 157 -233 206 -281 239 -109 75 -357 290 -455 394 -79 85 -92
106 -158 247 -41 89 -128 189 -189 219 -37 18 -62 21 -173 21 -112 0 -141 3
-203 25 -107 36 -140 60 -168 122 -35 75 -29 167 23 390 8 34 14 104 14 156 0
88 2 99 36 165 51 103 86 129 252 185 83 28 159 47 188 48 27 1 63 5 79 9 17
4 113 8 215 9 170 0 190 -1 250 -23z m3108 -968 c7 -7 12 -20 12 -30 0 -21
-20 -22 -67 -5 -34 13 -33 31 2 40 34 8 41 7 53 -5z m1072 -71 c86 -43 147
-67 168 -67 40 0 87 41 79 71 -9 33 10 31 56 -8 24 -21 97 -76 162 -123 341
-247 486 -396 534 -551 68 -218 81 -271 81 -329 0 -55 -3 -65 -29 -91 -25 -24
-37 -29 -81 -29 -60 0 -99 15 -177 68 -130 88 -197 103 -250 58 -41 -35 -44
-129 -9 -250 33 -114 43 -191 26 -211 -7 -9 -29 -15 -51 -15 -31 0 -48 8 -79
37 -108 96 -256 180 -338 190 -120 14 -219 -93 -238 -255 -7 -68 -22 -92 -57
-92 -39 0 -214 96 -306 169 -78 61 -193 107 -247 96 -47 -8 -101 -58 -116
-107 -21 -70 -98 -128 -172 -128 -27 0 -46 10 -84 43 -69 59 -98 107 -132 216
-45 144 -81 166 -142 89 -18 -23 -53 -63 -78 -89 -65 -68 -160 -92 -160 -40 0
60 -142 257 -270 375 -30 28 -107 101 -170 162 -63 61 -146 135 -185 165 -77
60 -228 196 -233 210 -8 20 27 7 64 -25 149 -127 406 -302 494 -336 19 -8 67
-34 105 -59 80 -51 232 -111 282 -111 111 0 206 123 175 227 -26 88 -117 190
-435 487 -147 138 -172 174 -117 169 14 -2 66 -7 115 -12 94 -9 164 -30 252
-75 58 -29 114 -34 133 -11 7 8 13 36 14 62 l1 48 80 3 c44 2 109 -2 144 -8
62 -11 240 -74 398 -142 69 -29 74 -30 98 -14 29 19 34 64 9 100 -8 14 -58 54
-110 91 -52 37 -97 71 -100 77 -3 5 0 16 7 24 10 13 63 14 383 12 l371 -3 135
-68z m-4810 -186 c0 -20 -240 -88 -262 -75 -12 8 18 41 57 65 23 15 50 19 118
19 48 0 87 -4 87 -9z m174 -118 c14 -21 37 -68 52 -105 17 -41 52 -96 93 -146
85 -102 309 -306 441 -402 125 -90 225 -174 345 -289 50 -48 106 -98 125 -113
45 -34 35 -45 -55 -58 -39 -5 -86 -14 -105 -20 -19 -5 -84 -10 -145 -10 -60
-1 -141 -5 -180 -11 -38 -5 -104 -14 -145 -19 -111 -13 -328 -96 -437 -167
-126 -83 -183 -218 -183 -441 0 -133 -19 -228 -48 -239 -20 -8 -51 31 -101
127 -58 111 -74 177 -69 279 3 62 12 104 31 150 38 94 114 214 184 292 70 78
83 108 60 143 -36 54 -90 35 -162 -60 -136 -176 -182 -251 -215 -349 -23 -68
-44 -66 -48 5 -5 95 36 216 125 363 50 83 79 125 175 253 39 52 46 81 28 115
-13 22 -65 26 -92 5 -10 -7 -47 -53 -83 -102 -199 -273 -284 -430 -293 -541
-2 -35 -9 -66 -13 -69 -9 -5 -61 62 -90 118 -10 20 -25 70 -34 112 -28 135 10
259 129 420 86 116 215 250 296 307 54 37 66 50 68 76 3 25 -2 35 -23 49 -86
56 -279 -107 -499 -421 -76 -108 -104 -176 -112 -266 -7 -78 -18 -100 -29 -56
-10 38 0 298 14 362 7 33 19 89 26 125 8 36 17 85 20 109 16 124 87 202 254
284 115 57 188 82 351 120 58 14 146 43 195 66 50 22 98 41 107 41 10 0 29
-17 42 -37z m4833 -1116 c32 -20 92 -63 131 -95 40 -33 91 -65 112 -72 46 -15
52 -35 13 -43 -16 -3 -71 -16 -123 -28 -52 -12 -131 -25 -175 -29 -44 -4 -114
-11 -156 -15 -87 -9 -101 0 -69 43 11 15 34 79 51 142 17 65 38 121 47 128 29
23 102 9 169 -31z m-1536 -34 c15 -37 45 -80 86 -123 34 -37 60 -70 56 -74 -3
-3 -208 -6 -455 -6 -499 0 -474 -4 -445 67 17 44 30 46 134 23 70 -15 118 -9
208 28 28 11 82 26 120 32 76 13 180 57 210 90 34 37 60 26 86 -37z m672 -17
c18 -7 66 -39 107 -69 41 -31 105 -73 142 -94 37 -21 69 -43 72 -50 6 -16
-284 -6 -381 13 -40 8 -88 14 -108 14 -44 0 -46 18 -5 48 16 13 42 46 56 75
43 85 53 90 117 63z m-2630 -55 c103 -32 170 -50 237 -62 25 -4 78 -19 119
-33 86 -30 115 -32 155 -11 39 20 59 19 114 -9 52 -26 144 -60 210 -76 57 -15
44 -30 -26 -30 -31 0 -120 -7 -197 -15 -179 -19 -1543 -22 -1578 -4 -31 16
-107 91 -107 105 0 13 91 45 175 63 28 5 106 13 175 16 69 3 145 10 170 15 25
5 77 9 116 10 39 0 93 7 120 15 27 8 67 15 89 16 22 0 56 7 75 14 49 19 50 19
153 -14z m-1155 -244 c152 -139 149 -139 692 -144 246 -3 488 0 595 7 99 6
340 15 535 20 195 5 427 16 514 24 88 9 240 16 339 16 208 0 202 2 289 -99 87
-100 248 -264 293 -299 68 -52 55 -55 -310 -63 -178 -4 -330 -11 -337 -15 -12
-7 -372 -15 -1418 -30 -506 -8 -908 5 -967 31 -48 21 -182 143 -280 257 -172
197 -177 209 -121 274 35 39 84 74 106 74 7 0 38 -24 70 -53z"/>
</g>
</svg>
